<mxfile host="app.diagrams.net" modified="2024-04-07T06:34:48.728Z" agent="Mozilla/5.0 (Macintosh; Intel Mac OS X 10_15_7) AppleWebKit/537.36 (KHTML, like Gecko) Chrome/123.0.0.0 Safari/537.36" etag="ff3BdnesL6gptDZE3BP_" version="24.2.2" type="device">
  <diagram name="Page-1" id="uZWPDC6XUnTl8p8Llp1z">
    <mxGraphModel dx="1288" dy="852" grid="1" gridSize="10" guides="1" tooltips="1" connect="1" arrows="1" fold="1" page="1" pageScale="1" pageWidth="850" pageHeight="1100" math="0" shadow="0">
      <root>
        <mxCell id="0" />
        <mxCell id="1" parent="0" />
        <mxCell id="6MxEN1T-Fx8d5fhNnOGV-1" value="" style="ellipse;html=1;shape=startState;fillColor=#000000;strokeColor=#ff0000;" parent="1" vertex="1">
          <mxGeometry x="270" y="20" width="30" height="30" as="geometry" />
        </mxCell>
        <mxCell id="6MxEN1T-Fx8d5fhNnOGV-2" value="" style="edgeStyle=orthogonalEdgeStyle;html=1;verticalAlign=bottom;endArrow=open;endSize=8;strokeColor=#ff0000;rounded=0;" parent="1" source="6MxEN1T-Fx8d5fhNnOGV-1" edge="1">
          <mxGeometry relative="1" as="geometry">
            <mxPoint x="285" y="110" as="targetPoint" />
          </mxGeometry>
        </mxCell>
        <mxCell id="6MxEN1T-Fx8d5fhNnOGV-3" value="Trigger end of day Report Generation" style="rounded=1;whiteSpace=wrap;html=1;arcSize=40;fontColor=#000000;fillColor=#ffffc0;strokeColor=#ff0000;" parent="1" vertex="1">
          <mxGeometry x="225" y="110" width="120" height="40" as="geometry" />
        </mxCell>
        <mxCell id="6MxEN1T-Fx8d5fhNnOGV-4" value="" style="edgeStyle=orthogonalEdgeStyle;html=1;verticalAlign=bottom;endArrow=open;endSize=8;strokeColor=#ff0000;rounded=0;" parent="1" source="6MxEN1T-Fx8d5fhNnOGV-3" edge="1">
          <mxGeometry relative="1" as="geometry">
            <mxPoint x="285" y="210" as="targetPoint" />
          </mxGeometry>
        </mxCell>
        <mxCell id="6MxEN1T-Fx8d5fhNnOGV-5" value="If data is not load" style="rhombus;whiteSpace=wrap;html=1;fontColor=#000000;fillColor=#ffffc0;strokeColor=#ff0000;" parent="1" vertex="1">
          <mxGeometry x="230" y="210" width="115" height="70" as="geometry" />
        </mxCell>
        <mxCell id="6MxEN1T-Fx8d5fhNnOGV-6" value="Get Data" style="edgeStyle=orthogonalEdgeStyle;html=1;align=left;verticalAlign=bottom;endArrow=open;endSize=8;strokeColor=#ff0000;rounded=0;entryX=-0.029;entryY=0.501;entryDx=0;entryDy=0;entryPerimeter=0;" parent="1" source="6MxEN1T-Fx8d5fhNnOGV-5" edge="1" target="6MxEN1T-Fx8d5fhNnOGV-8">
          <mxGeometry x="-0.5877" y="5" relative="1" as="geometry">
            <mxPoint x="460" y="230" as="targetPoint" />
            <mxPoint as="offset" />
          </mxGeometry>
        </mxCell>
        <mxCell id="6MxEN1T-Fx8d5fhNnOGV-7" value="response data" style="edgeStyle=orthogonalEdgeStyle;html=1;align=left;verticalAlign=top;endArrow=open;endSize=8;strokeColor=#ff0000;rounded=0;entryX=0.5;entryY=0;entryDx=0;entryDy=0;" parent="1" source="6MxEN1T-Fx8d5fhNnOGV-5" edge="1" target="6MxEN1T-Fx8d5fhNnOGV-10">
          <mxGeometry y="103" relative="1" as="geometry">
            <mxPoint x="285" y="310" as="targetPoint" />
            <mxPoint as="offset" />
          </mxGeometry>
        </mxCell>
        <mxCell id="6MxEN1T-Fx8d5fhNnOGV-17" style="edgeStyle=orthogonalEdgeStyle;rounded=0;orthogonalLoop=1;jettySize=auto;html=1;" parent="1" source="6MxEN1T-Fx8d5fhNnOGV-8" edge="1">
          <mxGeometry relative="1" as="geometry">
            <mxPoint x="290" y="310" as="targetPoint" />
            <Array as="points">
              <mxPoint x="530" y="310" />
            </Array>
          </mxGeometry>
        </mxCell>
        <mxCell id="6MxEN1T-Fx8d5fhNnOGV-8" value="Choose action" style="rounded=1;whiteSpace=wrap;html=1;arcSize=40;fontColor=#000000;fillColor=#ffffc0;strokeColor=#ff0000;" parent="1" vertex="1">
          <mxGeometry x="470" y="225" width="120" height="40" as="geometry" />
        </mxCell>
        <mxCell id="VFUCppp0wGiyfy2b1SLW-2" style="edgeStyle=orthogonalEdgeStyle;rounded=0;orthogonalLoop=1;jettySize=auto;html=1;entryX=0.5;entryY=0;entryDx=0;entryDy=0;" edge="1" parent="1" source="6MxEN1T-Fx8d5fhNnOGV-10" target="VFUCppp0wGiyfy2b1SLW-1">
          <mxGeometry relative="1" as="geometry" />
        </mxCell>
        <mxCell id="6MxEN1T-Fx8d5fhNnOGV-10" value="View end day report" style="rounded=1;whiteSpace=wrap;html=1;arcSize=40;fontColor=#000000;fillColor=#ffffc0;strokeColor=#ff0000;" parent="1" vertex="1">
          <mxGeometry x="227.5" y="340" width="120" height="40" as="geometry" />
        </mxCell>
        <mxCell id="6MxEN1T-Fx8d5fhNnOGV-28" style="edgeStyle=orthogonalEdgeStyle;rounded=0;orthogonalLoop=1;jettySize=auto;html=1;entryX=0.5;entryY=0;entryDx=0;entryDy=0;" parent="1" source="6MxEN1T-Fx8d5fhNnOGV-12" target="6MxEN1T-Fx8d5fhNnOGV-18" edge="1">
          <mxGeometry relative="1" as="geometry" />
        </mxCell>
        <mxCell id="6MxEN1T-Fx8d5fhNnOGV-12" value="Prompt for data" style="rounded=1;whiteSpace=wrap;html=1;arcSize=40;fontColor=#000000;fillColor=#ffffc0;strokeColor=#ff0000;" parent="1" vertex="1">
          <mxGeometry x="610" y="455" width="120" height="40" as="geometry" />
        </mxCell>
        <mxCell id="6MxEN1T-Fx8d5fhNnOGV-31" style="edgeStyle=orthogonalEdgeStyle;rounded=0;orthogonalLoop=1;jettySize=auto;html=1;" parent="1" source="6MxEN1T-Fx8d5fhNnOGV-18" edge="1">
          <mxGeometry relative="1" as="geometry">
            <mxPoint x="290" y="620" as="targetPoint" />
            <Array as="points">
              <mxPoint x="670" y="620" />
            </Array>
          </mxGeometry>
        </mxCell>
        <mxCell id="6MxEN1T-Fx8d5fhNnOGV-18" value="Update the inventory" style="rounded=1;whiteSpace=wrap;html=1;arcSize=40;fontColor=#000000;fillColor=#ffffc0;strokeColor=#ff0000;" parent="1" vertex="1">
          <mxGeometry x="610" y="530" width="120" height="40" as="geometry" />
        </mxCell>
        <mxCell id="VFUCppp0wGiyfy2b1SLW-4" style="edgeStyle=orthogonalEdgeStyle;rounded=0;orthogonalLoop=1;jettySize=auto;html=1;entryX=0;entryY=0.5;entryDx=0;entryDy=0;" edge="1" parent="1" source="VFUCppp0wGiyfy2b1SLW-1" target="VFUCppp0wGiyfy2b1SLW-3">
          <mxGeometry relative="1" as="geometry" />
        </mxCell>
        <mxCell id="VFUCppp0wGiyfy2b1SLW-1" value="If request change" style="rhombus;whiteSpace=wrap;html=1;fontColor=#000000;fillColor=#ffffc0;strokeColor=#ff0000;" vertex="1" parent="1">
          <mxGeometry x="230" y="440" width="115" height="70" as="geometry" />
        </mxCell>
        <mxCell id="VFUCppp0wGiyfy2b1SLW-6" style="edgeStyle=orthogonalEdgeStyle;rounded=0;orthogonalLoop=1;jettySize=auto;html=1;entryX=0;entryY=0.5;entryDx=0;entryDy=0;" edge="1" parent="1" source="VFUCppp0wGiyfy2b1SLW-3" target="6MxEN1T-Fx8d5fhNnOGV-12">
          <mxGeometry relative="1" as="geometry">
            <mxPoint x="660" y="475" as="targetPoint" />
          </mxGeometry>
        </mxCell>
        <mxCell id="VFUCppp0wGiyfy2b1SLW-3" value="Enter update data" style="rounded=1;whiteSpace=wrap;html=1;arcSize=40;fontColor=#000000;fillColor=#ffffc0;strokeColor=#ff0000;" vertex="1" parent="1">
          <mxGeometry x="410" y="455" width="120" height="40" as="geometry" />
        </mxCell>
        <mxCell id="VFUCppp0wGiyfy2b1SLW-10" value="Generate Report" style="rounded=1;whiteSpace=wrap;html=1;arcSize=40;fontColor=#000000;fillColor=#ffffc0;strokeColor=#ff0000;" vertex="1" parent="1">
          <mxGeometry x="230" y="690" width="120" height="40" as="geometry" />
        </mxCell>
        <mxCell id="VFUCppp0wGiyfy2b1SLW-13" style="edgeStyle=orthogonalEdgeStyle;rounded=0;orthogonalLoop=1;jettySize=auto;html=1;entryX=0.472;entryY=0.042;entryDx=0;entryDy=0;entryPerimeter=0;" edge="1" parent="1" source="VFUCppp0wGiyfy2b1SLW-1" target="VFUCppp0wGiyfy2b1SLW-10">
          <mxGeometry relative="1" as="geometry" />
        </mxCell>
      </root>
    </mxGraphModel>
  </diagram>
</mxfile>
